<svg id="svg" version="1.1" xmlns="http://www.w3.org/2000/svg" xmlns:xlink="http://www.w3.org/1999/xlink" width="400" height="400" viewBox="0, 0, 400,400"><g id="svgg"><path id="path0" d="M337.000 175.211 C 331.560 175.823,328.399 178.792,328.401 183.287 C 328.402 187.124,331.167 189.572,337.316 191.180 C 346.585 193.604,348.533 194.639,348.533 197.139 C 348.533 203.925,333.128 203.890,331.456 197.100 C 331.036 195.395,327.600 195.414,327.600 197.121 C 327.600 205.737,346.003 209.222,351.070 201.566 C 354.790 195.945,351.488 191.093,342.393 188.815 C 332.214 186.265,329.818 184.102,333.307 180.613 C 337.079 176.841,347.600 178.711,347.600 183.153 C 347.600 183.903,347.830 184.000,349.600 184.000 C 351.930 184.000,352.139 183.424,350.843 180.572 C 348.990 176.492,343.727 174.454,337.000 175.211 M169.200 189.826 C 165.790 197.869,162.937 204.628,162.859 204.847 C 162.774 205.088,163.559 205.196,164.850 205.122 L 166.981 205.000 168.671 201.000 L 170.360 197.000 177.611 197.000 L 184.863 197.000 186.568 201.000 L 188.274 205.000 190.388 205.123 C 192.286 205.233,192.475 205.171,192.234 204.523 C 192.086 204.125,189.238 197.365,185.905 189.500 L 179.845 175.200 177.623 175.201 L 175.400 175.203 169.200 189.826 M195.671 185.900 C 195.814 197.799,195.952 198.495,198.806 201.746 C 203.443 207.027,213.603 206.862,218.253 201.429 C 220.771 198.488,221.200 196.091,221.200 184.958 L 221.200 175.200 219.440 175.200 L 217.680 175.200 217.540 185.300 L 217.400 195.400 216.154 197.600 C 212.204 204.573,201.411 203.005,199.630 195.200 C 199.404 194.210,199.215 189.305,199.210 184.300 L 199.200 175.200 197.371 175.200 L 195.542 175.200 195.671 185.900 M227.600 190.161 L 227.600 205.200 229.400 205.200 L 231.200 205.200 231.200 199.600 L 231.200 194.000 236.300 194.004 L 241.400 194.008 244.760 199.439 C 248.460 205.421,248.327 205.300,250.958 205.124 L 252.814 205.000 249.029 199.200 L 245.245 193.400 246.640 192.915 C 254.120 190.314,254.095 179.425,246.600 176.137 C 245.280 175.558,243.479 175.408,236.300 175.279 L 227.600 175.122 227.600 190.161 M257.600 190.200 L 257.600 205.200 259.400 205.200 L 261.200 205.200 261.200 190.200 L 261.200 175.200 259.400 175.200 L 257.600 175.200 257.600 190.200 M268.400 190.160 L 268.400 205.200 277.300 205.196 C 287.044 205.192,288.802 204.825,291.110 202.317 C 294.250 198.903,292.618 191.825,288.339 190.301 C 287.959 190.165,288.110 189.860,288.849 189.265 C 292.742 186.136,291.840 179.280,287.190 176.642 L 285.000 175.400 276.700 175.260 L 268.400 175.119 268.400 190.160 M297.671 185.900 C 297.814 197.799,297.952 198.495,300.806 201.746 C 305.443 207.027,315.603 206.862,320.253 201.429 C 322.771 198.488,323.200 196.091,323.200 184.958 L 323.200 175.200 321.440 175.200 L 319.680 175.200 319.540 185.300 L 319.400 195.400 318.154 197.600 C 314.204 204.573,303.411 203.005,301.630 195.200 C 301.404 194.210,301.215 189.305,301.210 184.300 L 301.200 175.200 299.371 175.200 L 297.542 175.200 297.671 185.900 M245.363 179.820 C 249.762 182.128,249.156 188.685,244.423 190.000 C 243.640 190.218,240.345 190.397,237.100 190.398 L 231.200 190.400 231.200 184.565 L 231.200 178.730 237.500 178.865 C 242.911 178.981,244.021 179.116,245.363 179.820 M284.082 179.216 C 288.036 180.314,288.669 185.687,285.094 187.799 C 284.022 188.433,282.788 188.592,277.900 188.731 L 272.000 188.899 272.000 183.850 L 272.000 178.800 277.300 178.802 C 280.215 178.803,283.267 178.990,284.082 179.216 M180.503 186.467 C 181.990 190.020,183.140 192.994,183.058 193.075 C 182.977 193.157,180.470 193.173,177.487 193.112 L 172.065 193.000 174.732 186.507 C 176.200 182.936,177.490 180.012,177.600 180.011 C 177.710 180.009,179.016 182.914,180.503 186.467 M285.869 192.775 C 288.624 194.026,289.740 196.540,288.604 198.935 C 287.488 201.288,285.982 201.733,278.500 201.926 L 272.000 202.094 272.000 197.047 L 272.000 192.000 278.100 192.009 C 283.220 192.016,284.468 192.139,285.869 192.775 " stroke="none" fill="#fc7c04" fill-rule="evenodd"></path><path id="path1" d="M118.400 152.192 C 108.883 154.315,97.151 163.151,100.030 166.030 C 101.148 167.148,101.326 167.067,104.302 164.100 C 120.387 148.059,146.446 154.805,152.413 176.556 C 154.731 185.005,153.143 192.342,146.788 202.546 C 142.210 209.896,140.248 215.876,139.606 224.440 C 139.062 231.695,137.737 235.244,134.190 238.946 C 124.259 249.311,108.545 246.777,101.787 233.722 C 100.162 230.583,99.299 229.888,98.181 230.816 C 95.523 233.022,102.143 242.694,108.637 246.093 C 124.890 254.598,141.716 244.147,143.198 224.625 C 143.809 216.588,145.962 210.327,150.561 203.218 C 159.794 188.945,158.851 173.036,148.090 161.522 C 140.966 153.900,128.420 149.958,118.400 152.192 M121.266 168.193 C 114.186 169.787,107.329 178.731,109.236 183.886 C 110.028 186.027,112.201 185.147,112.579 182.531 C 114.389 170.004,130.310 167.248,136.036 178.470 C 138.182 182.677,137.520 186.810,133.728 192.869 C 127.435 202.926,124.421 211.756,123.653 222.383 C 123.260 227.822,122.140 229.517,119.245 229.057 C 116.881 228.681,116.135 227.430,115.807 223.293 C 115.495 219.345,115.381 219.027,114.142 218.640 C 112.030 217.982,111.432 222.169,112.848 227.703 C 114.036 232.346,120.345 234.274,124.133 231.151 C 126.363 229.313,126.776 228.158,127.203 222.566 C 127.953 212.735,131.411 202.736,136.810 194.785 C 146.142 181.044,136.612 164.740,121.266 168.193 M75.693 182.100 C 75.470 182.375,74.369 186.725,73.245 191.766 C 72.121 196.807,71.149 200.985,71.084 201.050 C 71.019 201.115,70.073 199.831,68.983 198.196 C 65.882 193.547,65.042 193.799,62.630 200.100 L 61.138 204.000 52.783 204.000 C 43.681 204.000,43.212 204.123,44.034 206.300 C 44.373 207.198,44.395 207.200,53.738 207.200 C 64.365 207.200,63.402 207.533,65.090 203.278 L 66.249 200.357 68.597 203.778 C 72.395 209.312,72.916 208.950,75.040 199.299 C 75.875 195.504,76.679 192.534,76.827 192.699 C 76.975 192.865,78.118 198.482,79.367 205.183 C 81.669 217.526,81.924 218.400,83.226 218.400 C 84.337 218.400,84.794 217.486,87.602 209.655 C 90.593 201.311,90.224 201.726,91.916 204.805 L 93.231 207.200 102.567 207.200 C 112.725 207.200,113.164 207.104,112.637 205.005 L 112.385 204.000 103.892 204.000 L 95.400 203.999 93.269 200.177 C 89.961 194.243,89.425 194.483,86.268 203.301 C 84.948 206.986,83.822 209.955,83.765 209.899 C 83.708 209.842,82.561 203.856,81.216 196.598 C 79.871 189.339,78.601 182.995,78.394 182.500 C 77.976 181.501,76.370 181.263,75.693 182.100 M162.400 210.800 L 162.400 212.000 165.400 212.000 L 168.400 212.000 168.400 219.400 L 168.400 226.800 169.400 226.800 L 170.400 226.800 170.400 219.400 L 170.400 212.000 173.400 212.000 L 176.400 212.000 176.400 210.800 L 176.400 209.600 169.400 209.600 L 162.400 209.600 162.400 210.800 M178.400 218.200 L 178.400 226.800 184.800 226.800 L 191.200 226.800 191.200 225.800 L 191.200 224.800 186.000 224.800 L 180.800 224.800 180.800 222.200 L 180.800 219.600 185.600 219.600 L 190.400 219.600 190.400 218.400 L 190.400 217.200 185.600 217.200 L 180.800 217.200 180.800 214.600 L 180.800 212.000 186.000 212.000 L 191.200 212.000 191.200 210.800 L 191.200 209.600 184.800 209.600 L 178.400 209.600 178.400 218.200 M197.339 210.423 C 191.466 213.330,191.754 223.710,197.783 226.448 C 202.097 228.408,209.200 225.528,209.200 221.820 C 209.200 221.166,206.783 221.684,206.389 222.421 C 204.675 225.623,198.445 225.520,196.440 222.257 C 192.255 215.448,200.758 207.891,205.951 213.805 C 207.431 215.490,209.453 215.827,208.971 214.308 C 207.685 210.256,201.709 208.260,197.339 210.423 M211.600 218.200 L 211.600 226.800 212.800 226.800 L 214.000 226.800 214.000 223.200 L 214.000 219.600 218.800 219.600 L 223.600 219.600 223.600 223.200 L 223.600 226.800 224.800 226.800 L 226.000 226.800 226.000 218.200 L 226.000 209.600 224.800 209.600 L 223.600 209.600 223.600 213.400 L 223.600 217.200 218.800 217.200 L 214.000 217.200 214.000 213.400 L 214.000 209.600 212.800 209.600 L 211.600 209.600 211.600 218.200 M229.600 218.200 L 229.600 226.800 230.790 226.800 L 231.981 226.800 232.090 220.162 L 232.200 213.525 237.000 220.157 C 241.503 226.379,241.880 226.789,243.100 226.794 L 244.400 226.800 244.400 218.200 L 244.400 209.600 243.400 209.600 L 242.400 209.600 242.387 216.500 C 242.374 223.083,242.342 223.361,241.687 222.556 C 241.309 222.092,239.020 218.994,236.600 215.672 C 232.506 210.051,232.110 209.631,230.900 209.616 L 229.600 209.600 229.600 218.200 M251.937 210.408 C 244.326 214.429,246.566 226.311,255.080 227.083 C 261.086 227.627,265.122 223.591,264.730 217.432 C 264.338 211.278,257.449 207.496,251.937 210.408 M267.600 218.200 L 267.600 226.800 273.400 226.800 L 279.200 226.800 279.200 225.800 L 279.200 224.800 274.600 224.800 L 270.000 224.800 270.000 217.200 L 270.000 209.600 268.800 209.600 L 267.600 209.600 267.600 218.200 M284.737 210.408 C 277.126 214.429,279.366 226.311,287.880 227.083 C 293.886 227.627,297.922 223.591,297.530 217.432 C 297.138 211.278,290.249 207.496,284.737 210.408 M304.200 210.157 C 299.419 212.252,297.746 219.737,301.113 223.973 C 303.972 227.572,309.678 228.226,312.885 225.323 C 313.554 224.717,313.600 224.744,313.600 225.738 C 313.600 226.651,313.768 226.800,314.800 226.800 L 316.000 226.800 316.000 222.200 L 316.000 217.600 311.800 217.600 L 307.600 217.600 307.600 218.600 C 307.600 219.579,307.663 219.600,310.650 219.600 L 313.700 219.600 313.445 220.874 C 312.470 225.750,304.845 226.266,302.500 221.615 C 299.038 214.751,308.078 207.888,312.753 213.831 C 313.598 214.906,315.600 215.187,315.600 214.231 C 315.600 211.105,308.129 208.436,304.200 210.157 M318.800 218.200 L 318.800 226.800 320.000 226.800 L 321.200 226.800 321.200 218.200 L 321.200 209.600 320.000 209.600 L 318.800 209.600 318.800 218.200 M324.800 218.200 L 324.800 226.800 331.400 226.800 L 338.000 226.800 338.000 225.800 L 338.000 224.800 332.600 224.800 L 327.200 224.800 327.200 222.200 L 327.200 219.600 332.000 219.600 L 336.800 219.600 336.800 218.400 L 336.800 217.200 332.000 217.200 L 327.200 217.200 327.200 214.600 L 327.200 212.000 332.600 212.000 L 338.000 212.000 338.000 210.800 L 338.000 209.600 331.400 209.600 L 324.800 209.600 324.800 218.200 M342.551 210.175 C 340.854 210.914,340.000 212.261,340.000 214.200 C 340.000 217.078,340.849 217.691,347.486 219.597 C 350.518 220.468,351.670 221.445,351.306 222.838 C 350.569 225.658,343.446 225.542,342.078 222.688 C 341.623 221.739,339.200 220.985,339.200 221.792 C 339.200 226.780,349.108 229.277,352.571 225.162 C 355.160 222.085,353.601 219.004,348.743 217.597 C 342.317 215.736,341.383 215.100,342.369 213.257 C 343.653 210.859,350.012 211.313,350.648 213.848 C 350.995 215.233,353.200 215.239,353.200 213.854 C 353.200 210.554,346.778 208.335,342.551 210.175 M259.600 212.739 C 264.832 216.582,262.558 224.794,256.260 224.799 C 252.540 224.801,250.036 222.541,249.714 218.888 C 249.242 213.532,255.435 209.680,259.600 212.739 M292.400 212.739 C 297.632 216.582,295.358 224.794,289.060 224.799 C 285.340 224.801,282.836 222.541,282.514 218.888 C 282.042 213.532,288.235 209.680,292.400 212.739 " stroke="none" fill="#04347c" fill-rule="evenodd"></path><path id="path2" d="" stroke="none" fill="#1005840" fill-rule="evenodd"></path><path id="path3" d="" stroke="none" fill="#445840" fill-rule="evenodd"></path><path id="path4" d="" stroke="none" fill="#045880" fill-rule="evenodd"></path></g></svg>